<mxfile host="app.diagrams.net" modified="2024-01-18T22:22:41.071Z" agent="Mozilla/5.0 (Windows NT 10.0; Win64; x64) AppleWebKit/537.36 (KHTML, like Gecko) Chrome/120.0.0.0 Safari/537.36" version="22.1.21" etag="k312Hh4zkg0rUb985uVn" type="github">
  <diagram name="페이지-1" id="3UZAu0evioHE1n8oTG8W">
    <mxGraphModel>
      <root>
        <mxCell id="0" />
        <mxCell id="1" parent="0" />
      </root>
    </mxGraphModel>
  </diagram>
</mxfile>
